<svg width="157" height="16" viewBox="0 0 157 16" fill="none" xmlns="http://www.w3.org/2000/svg">
<path d="M0 6.76122e-06V16H8C7.99996 15.869 8.00256 15.7382 8.00917 15.6075C8.01557 15.4768 8.02555 15.3461 8.03835 15.2158C8.05115 15.0856 8.06754 14.9553 8.08669 14.8258C8.10584 14.6964 8.12782 14.5677 8.15335 14.4392C8.17895 14.3107 8.20734 14.1828 8.23919 14.0558C8.27106 13.9289 8.30616 13.8027 8.34419 13.6775C8.38221 13.5523 8.42338 13.4282 8.46752 13.305C8.51167 13.1818 8.559 13.0594 8.60919 12.9383C8.65931 12.8173 8.7124 12.6975 8.76836 12.5792C8.82431 12.4608 8.88335 12.3437 8.94502 12.2283C9.00669 12.1129 9.07108 11.999 9.13836 11.8867C9.20563 11.7744 9.27558 11.6639 9.34836 11.555C9.42115 11.4461 9.49621 11.3392 9.57419 11.2342C9.65217 11.1291 9.73284 11.0261 9.81586 10.925C9.89887 10.8239 9.98462 10.7244 10.0725 10.6275C10.1604 10.5306 10.2507 10.4359 10.3434 10.3433C10.4359 10.2507 10.5306 10.1604 10.6275 10.0725C10.7245 9.9846 10.8239 9.89885 10.925 9.81584C11.0261 9.73282 11.1291 9.65215 11.2342 9.57417C11.3393 9.49619 11.4461 9.42113 11.555 9.34834C11.664 9.27556 11.7744 9.20561 11.8867 9.13834C11.999 9.07106 12.1129 9.00668 12.2284 8.945C12.3438 8.88333 12.4609 8.82429 12.5792 8.76834C12.6975 8.71238 12.8173 8.65929 12.9384 8.60917C13.0594 8.55899 13.1818 8.51165 13.305 8.4675C13.4283 8.42336 13.5523 8.3822 13.6775 8.34417C13.8027 8.30615 13.9289 8.27102 14.0559 8.23917C14.1828 8.2073 14.3107 8.17894 14.4392 8.15334C14.5677 8.12782 14.6964 8.10584 14.8259 8.08667C14.9553 8.06751 15.0856 8.05113 15.2159 8.03834C15.3461 8.02554 15.4768 8.01555 15.6075 8.00915C15.7383 8.00275 15.869 7.99993 16 7.99998C16.1821 7.99988 16.3642 8.00599 16.5459 8.01832C16.7275 8.03074 16.9088 8.04939 17.0892 8.07416C17.2696 8.09912 17.4492 8.13026 17.6275 8.16749C17.8059 8.20448 17.9829 8.24757 18.1583 8.29666C18.3338 8.34571 18.5075 8.40075 18.6792 8.46166C18.8506 8.52281 19.0199 8.58979 19.1867 8.66249C19.3537 8.73491 19.5183 8.81301 19.68 8.89666C19.8419 8.98036 20.0009 9.06959 20.1567 9.16416C20.3123 9.25892 20.4646 9.35899 20.6134 9.46416C20.7621 9.56918 20.9071 9.67924 21.0483 9.79416C21.1896 9.90916 21.3269 10.029 21.46 10.1533C21.5933 10.2775 21.7222 10.4062 21.8467 10.5392C21.9711 10.6722 22.0908 10.8096 22.2058 10.9508C22.3208 11.0923 22.4308 11.2377 22.5359 11.3867C22.6407 11.5354 22.7405 11.6877 22.835 11.8433C22.9296 11.9988 23.0188 12.1575 23.1025 12.3192C23.1864 12.4809 23.2648 12.6454 23.3375 12.8125C23.41 12.9796 23.4767 13.1492 23.5375 13.3208C23.5987 13.4925 23.654 13.6662 23.7034 13.8417C23.7524 14.0171 23.7955 14.1941 23.8325 14.3725C23.8695 14.5508 23.9003 14.7304 23.925 14.9108C23.9498 15.0912 23.9684 15.2725 23.9809 15.4542C23.9934 15.6358 23.9998 15.8179 24 16H32C32 15.7382 31.9936 15.4765 31.9808 15.215C31.9678 14.9534 31.9484 14.6922 31.9225 14.4317C31.8969 14.1712 31.865 13.9114 31.8267 13.6525C31.7883 13.3934 31.7435 13.1352 31.6925 12.8783C31.6413 12.6217 31.5837 12.3663 31.52 12.1125C31.4565 11.8583 31.3867 11.6057 31.3108 11.355C31.2347 11.1047 31.1525 10.8563 31.0642 10.61C30.976 10.3633 30.8818 10.1187 30.7817 9.87666C30.6814 9.63492 30.5753 9.39568 30.4633 9.15916C30.3516 8.92242 30.2341 8.68845 30.1108 8.45749C29.9873 8.22658 29.8581 7.99872 29.7233 7.77416C29.5888 7.54965 29.4487 7.32846 29.3033 7.11082C29.1578 6.89299 29.0069 6.67875 28.8508 6.46832C28.6951 6.25802 28.5342 6.05157 28.3683 5.84916C28.2021 5.64694 28.0309 5.44881 27.855 5.25499C27.6791 5.06087 27.4985 4.87108 27.3133 4.68583C27.1283 4.50093 26.9388 4.3206 26.745 4.14499C26.5509 3.96904 26.3525 3.79787 26.15 3.63166C25.9476 3.46551 25.7411 3.30434 25.5308 3.14833C25.3207 2.99255 25.1067 2.84194 24.8892 2.69666C24.6715 2.55097 24.4504 2.41065 24.2258 2.27583C24.1509 2.23272 24.0756 2.19022 24 2.14833C23.8489 2.05944 23.6964 1.97303 23.5425 1.88916C23.3115 1.76566 23.0776 1.64784 22.8408 1.53583C22.604 1.42385 22.3645 1.3177 22.1225 1.21749C21.8807 1.11735 21.6364 1.02316 21.39 0.934993C21.1434 0.846959 20.8948 0.764987 20.6442 0.68916C20.3937 0.612983 20.1414 0.54296 19.8875 0.47916C19.6337 0.415685 19.3783 0.358442 19.1217 0.307494C18.8648 0.256439 18.6066 0.211706 18.3475 0.173327C18.0886 0.134756 17.8288 0.102504 17.5683 0.0766604C17.3077 0.0511031 17.0465 0.0319135 16.785 0.0191604C16.5235 0.00636041 16.2618 -4.24158e-05 16 2.50809e-07C15.8095 -3.38825e-05 15.6186 0.00341656 15.4283 0.00998723C15.238 0.0167712 15.0483 0.0272656 14.8583 0.0408336C14.6684 0.0544016 14.4785 0.0713405 14.2892 0.0916669C14.0998 0.111976 13.9111 0.135415 13.7225 0.1625C13.534 0.189679 13.3465 0.220311 13.1592 0.254167C12.9719 0.288044 12.7851 0.325321 12.5992 0.365833C12.4132 0.406367 12.2278 0.449541 12.0433 0.496667C11.8589 0.543796 11.6752 0.594629 11.4925 0.648333C11.3097 0.701974 11.1282 0.759066 10.9475 0.819167C10.7668 0.879271 10.5867 0.942666 10.4083 1.00917C10.23 1.07567 10.0534 1.14467 9.87751 1.21751C9.70159 1.29034 9.52663 1.36672 9.35334 1.44583C9.12198 1.55808 8.89312 1.67594 8.6675 1.79917C8.44189 1.9224 8.21949 2.051 8.00001 2.185V6.76122e-06H0Z" fill="#6666CC"/>
<path d="M41 15.7348V0.265221H43.7845L51.0331 12.8177H51.0994V0.265221H53.3094V15.7348H50.5249L43.2762 3.18234H43.2099V15.7348H41ZM59.5635 16C58.6943 16 57.9429 15.8232 57.3094 15.4696C56.6906 15.1013 56.2044 14.5562 55.8508 13.8342C55.512 13.1123 55.3425 12.1989 55.3425 11.0939V4.77346H57.5304V10.8729C57.5304 11.9484 57.7514 12.7587 58.1934 13.3038C58.6501 13.849 59.3204 14.1215 60.2044 14.1215C60.7937 14.1215 61.3168 13.9816 61.7735 13.7017C62.2449 13.407 62.6132 12.9871 62.8784 12.442C63.1436 11.8969 63.2762 11.2339 63.2762 10.453V4.77346H65.4862V15.7348H63.5635L63.3646 13.9447H63.2983C62.9447 14.5635 62.4512 15.0644 61.8177 15.4475C61.1842 15.8158 60.4328 16 59.5635 16ZM67.5635 15.7348V4.77346H69.5083L69.7072 6.51933H69.7735C70.1271 5.85635 70.6059 5.35544 71.2099 5.01658C71.814 4.67772 72.4917 4.50829 73.2431 4.50829C73.803 4.50829 74.3112 4.58932 74.768 4.7514C75.2394 4.91345 75.6446 5.15654 75.9834 5.48066C76.337 5.79005 76.6243 6.19522 76.8453 6.69615H76.9116C77.3094 5.98896 77.8251 5.45121 78.4586 5.08288C79.0921 4.69982 79.8435 4.50829 80.7127 4.50829C81.5525 4.50829 82.2818 4.69246 82.9006 5.06078C83.5341 5.41438 84.0276 5.9595 84.3812 6.69615C84.7348 7.41804 84.9116 8.32411 84.9116 9.41436V15.7348H82.7238V9.63537C82.7238 8.57459 82.5101 7.77164 82.0829 7.22653C81.6556 6.66666 81.0147 6.38673 80.1602 6.38673C79.6004 6.38673 79.1068 6.51197 78.6796 6.76245C78.267 6.99817 77.9355 7.36648 77.6851 7.86739C77.4494 8.36832 77.3315 8.99449 77.3315 9.74588V15.7348H75.1216V9.63537C75.1216 8.57459 74.9079 7.77164 74.4807 7.22653C74.0681 6.66666 73.4494 6.38673 72.6243 6.38673C72.1234 6.38673 71.6519 6.53406 71.2099 6.82872C70.7827 7.10867 70.4365 7.52119 70.1713 8.0663C69.9061 8.61141 69.7735 9.27439 69.7735 10.0553V15.7348H67.5635ZM94.0608 16C92.5285 16 91.2026 15.6685 90.0829 15.0055C88.9779 14.3278 88.1234 13.3923 87.5193 12.1989C86.93 10.9908 86.6354 9.59115 86.6354 8C86.6354 6.42358 86.9374 5.03131 87.5414 3.82319C88.1455 2.6151 89 1.67956 90.105 1.01658C91.2099 0.338858 92.5285 0 94.0608 0C95.8729 0 97.3462 0.434614 98.4806 1.30385C99.6151 2.17311 100.337 3.39596 100.646 4.97237H98.1934C97.9724 4.05894 97.5156 3.33702 96.8232 2.80661C96.1455 2.2615 95.2173 1.98895 94.0387 1.98895C92.9926 1.98895 92.0792 2.23205 91.2983 2.71825C90.5322 3.18969 89.9355 3.88212 89.5083 4.79556C89.0958 5.69429 88.8895 6.76244 88.8895 8C88.8895 9.25229 89.0958 10.3278 89.5083 11.2265C89.9355 12.1252 90.5322 12.8177 91.2983 13.3038C92.0792 13.7753 92.9926 14.011 94.0387 14.011C95.2173 14.011 96.1528 13.7532 96.8453 13.2376C97.5525 12.7072 98.0166 12 98.2375 11.116H100.646C100.337 12.6482 99.6151 13.849 98.4806 14.7182C97.3462 15.5727 95.8729 16 94.0608 16ZM102.503 15.7348V4.77346H104.447L104.646 7.09393H104.713C105.037 6.37201 105.383 5.82689 105.751 5.45856C106.12 5.09024 106.547 4.83979 107.033 4.70721C107.519 4.5746 108.094 4.50829 108.757 4.50829V6.82872H108.16C107.63 6.82872 107.144 6.90239 106.702 7.04973C106.274 7.18234 105.913 7.3886 105.619 7.66853C105.324 7.93371 105.096 8.2873 104.934 8.7293C104.786 9.17127 104.713 9.69428 104.713 10.2983V15.7348L102.503 15.7348ZM114.105 16C113.236 16 112.484 15.8232 111.851 15.4696C111.232 15.1013 110.746 14.5562 110.392 13.8342C110.053 13.1123 109.884 12.1989 109.884 11.0939V4.77346H112.072V10.8729C112.072 11.9484 112.293 12.7587 112.735 13.3038C113.192 13.849 113.862 14.1215 114.746 14.1215C115.335 14.1215 115.858 13.9816 116.315 13.7017C116.786 13.407 117.155 12.9871 117.42 12.442C117.685 11.8969 117.818 11.2339 117.818 10.453V4.77346H120.028V15.7348H118.105L117.906 13.9447H117.84C117.486 14.5635 116.993 15.0644 116.359 15.4475C115.726 15.8158 114.974 16 114.105 16ZM122.105 15.7348V4.77346H124.028L124.227 6.56355H124.293C124.661 5.93003 125.155 5.42911 125.773 5.06078C126.407 4.69246 127.158 4.50829 128.028 4.50829C128.897 4.50829 129.648 4.69246 130.282 5.06078C130.915 5.41438 131.401 5.95213 131.74 6.67405C132.094 7.39594 132.271 8.30938 132.271 9.41436V15.7348H130.061V9.63537C130.061 8.57459 129.832 7.77164 129.376 7.22653C128.934 6.66666 128.271 6.38673 127.387 6.38673C126.797 6.38673 126.267 6.53406 125.796 6.82872C125.339 7.10867 124.978 7.52119 124.713 8.0663C124.448 8.61141 124.315 9.27439 124.315 10.0553V15.7348H122.105ZM139.431 16C138.297 16 137.309 15.7569 136.47 15.2707C135.63 14.7845 134.982 14.1142 134.525 13.2597C134.068 12.3904 133.84 11.3886 133.84 10.2542C133.84 9.11971 134.076 8.12524 134.547 7.27074C135.033 6.40148 135.696 5.72374 136.536 5.23754C137.39 4.75137 138.355 4.50829 139.431 4.50829C140.772 4.50829 141.891 4.86188 142.79 5.56907C143.703 6.26152 144.285 7.19705 144.536 8.37567H142.238C142.09 7.71269 141.751 7.2044 141.221 6.85081C140.705 6.48248 140.101 6.29832 139.409 6.29832C138.82 6.29832 138.274 6.45303 137.773 6.76245C137.273 7.05711 136.867 7.49909 136.558 8.0884C136.249 8.66298 136.094 9.3849 136.094 10.2542C136.094 10.8877 136.175 11.4475 136.337 11.9337C136.514 12.4052 136.75 12.8103 137.044 13.1492C137.354 13.4733 137.707 13.7237 138.105 13.9005C138.503 14.0626 138.937 14.1437 139.409 14.1437C139.88 14.1437 140.308 14.0626 140.691 13.9005C141.088 13.7385 141.42 13.5101 141.685 13.2155C141.965 12.9061 142.149 12.5451 142.238 12.1326H144.536C144.285 13.2965 143.703 14.232 142.79 14.9392C141.891 15.6464 140.772 16 139.431 16ZM146.348 15.7348V0.154707H148.536V6.60774H148.602C149.015 5.93002 149.538 5.41437 150.171 5.06078C150.82 4.69245 151.534 4.50829 152.315 4.50829C153.169 4.50829 153.906 4.69245 154.525 5.06078C155.158 5.41437 155.645 5.9595 155.983 6.69615C156.322 7.41804 156.492 8.32411 156.492 9.41435V15.7348H154.304V9.63537C154.304 8.57459 154.09 7.77164 153.663 7.22653C153.236 6.66666 152.58 6.38673 151.696 6.38673C151.107 6.38673 150.569 6.53406 150.083 6.82872C149.611 7.10867 149.236 7.52119 148.956 8.0663C148.691 8.61141 148.558 9.27439 148.558 10.0553V15.7348H146.348Z" fill="#222222"/>
</svg>
