<svg width="390" height="355" viewBox="0 0 390 355" fill="none" xmlns="http://www.w3.org/2000/svg">
<rect width="390" height="355" fill="#E9E9F8"/>
<rect opacity="0.9" x="11" y="11" width="368" height="103" rx="4" stroke="#C8C9ED" stroke-width="2"/>
<rect x="10" y="130" width="85" height="35" rx="5" fill="#A4A6E1"/>
<rect x="10" y="220" width="85" height="35" rx="5" fill="#A4A6E1"/>
<rect x="105" y="130" width="85" height="35" rx="5" fill="#A4A6E1"/>
<rect x="105" y="220" width="85" height="35" rx="5" fill="#A4A6E1"/>
<rect x="200" y="130" width="85" height="35" rx="5" fill="#A4A6E1"/>
<rect x="200" y="220" width="85" height="35" rx="5" fill="#A4A6E1"/>
<rect x="295" y="130" width="85" height="35" rx="5" fill="#8083D5"/>
<rect x="295" y="220" width="85" height="35" rx="5" fill="#8083D5"/>
<rect x="295" y="175" width="85" height="35" rx="5" fill="#8083D5"/>
<rect x="295" y="265" width="85" height="35" rx="5" fill="#8083D5"/>
<rect x="295" y="310" width="85" height="35" rx="5" fill="#6666CC"/>
<rect x="200" y="175" width="85" height="35" rx="5" fill="#A4A6E1"/>
<rect x="200" y="265" width="85" height="35" rx="5" fill="#A4A6E1"/>
<rect x="200" y="310" width="85" height="35" rx="5" fill="#A4A6E1"/>
<rect x="105" y="175" width="85" height="35" rx="5" fill="#A4A6E1"/>
<rect x="105" y="265" width="85" height="35" rx="5" fill="#A4A6E1"/>
<rect x="105" y="310" width="85" height="35" rx="5" fill="#A4A6E1"/>
<rect x="10" y="175" width="85" height="35" rx="5" fill="#A4A6E1"/>
<rect x="10" y="265" width="85" height="35" rx="5" fill="#A4A6E1"/>
<rect x="10" y="310" width="85" height="35" rx="5" fill="#A4A6E1"/>
<path d="M148.003 198.192C147.256 198.192 146.6 198.053 146.035 197.776C145.48 197.488 145.043 197.099 144.723 196.608C144.403 196.117 144.243 195.557 144.243 194.928C144.243 194.224 144.43 193.627 144.803 193.136C145.176 192.645 145.608 192.304 146.099 192.112V192.032C145.63 191.808 145.251 191.488 144.963 191.072C144.686 190.645 144.547 190.149 144.547 189.584C144.547 189.04 144.686 188.544 144.963 188.096C145.251 187.637 145.656 187.275 146.179 187.008C146.702 186.741 147.31 186.608 148.003 186.608C148.686 186.608 149.283 186.741 149.795 187.008C150.318 187.275 150.723 187.637 151.011 188.096C151.31 188.544 151.459 189.04 151.459 189.584C151.459 190.149 151.315 190.645 151.027 191.072C150.75 191.488 150.376 191.808 149.907 192.032V192.112C150.398 192.304 150.83 192.645 151.203 193.136C151.576 193.627 151.763 194.224 151.763 194.928C151.763 195.557 151.603 196.117 151.283 196.608C150.963 197.099 150.52 197.488 149.955 197.776C149.4 198.053 148.75 198.192 148.003 198.192ZM148.003 191.536C148.664 191.536 149.182 191.365 149.555 191.024C149.939 190.672 150.131 190.219 150.131 189.664C150.131 189.12 149.939 188.677 149.555 188.336C149.182 187.984 148.664 187.808 148.003 187.808C147.342 187.808 146.819 187.984 146.435 188.336C146.062 188.677 145.875 189.12 145.875 189.664C145.875 190.219 146.062 190.672 146.435 191.024C146.819 191.365 147.342 191.536 148.003 191.536ZM148.003 196.976C148.718 196.976 149.294 196.795 149.731 196.432C150.179 196.059 150.403 195.52 150.403 194.816C150.403 194.123 150.179 193.595 149.731 193.232C149.294 192.859 148.718 192.672 148.003 192.672C147.288 192.672 146.707 192.859 146.259 193.232C145.822 193.595 145.603 194.123 145.603 194.816C145.603 195.52 145.822 196.059 146.259 196.432C146.707 196.795 147.288 196.976 148.003 196.976Z" fill="#222222"/>
<path d="M148.083 153.192C147.176 153.192 146.392 152.952 145.731 152.472C145.08 151.992 144.579 151.32 144.227 150.456C143.886 149.592 143.715 148.573 143.715 147.4C143.715 146.237 143.886 145.224 144.227 144.36C144.579 143.485 145.08 142.808 145.731 142.328C146.392 141.848 147.176 141.608 148.083 141.608C149.235 141.608 150.163 141.928 150.867 142.568C151.571 143.197 151.982 144.04 152.099 145.096H150.611C150.504 144.467 150.238 143.939 149.811 143.512C149.384 143.085 148.808 142.872 148.083 142.872C147.155 142.872 146.424 143.277 145.891 144.088C145.358 144.888 145.091 145.992 145.091 147.4C145.091 148.819 145.358 149.928 145.891 150.728C146.424 151.528 147.155 151.928 148.083 151.928C148.84 151.928 149.422 151.725 149.827 151.32C150.243 150.915 150.504 150.392 150.611 149.752H152.099C151.928 150.819 151.502 151.661 150.819 152.28C150.147 152.888 149.235 153.192 148.083 153.192Z" fill="#222222"/>
<path d="M50.9551 198L55.3231 188.016H49.2111V186.8H56.7151V187.872L52.3791 198H50.9551Z" fill="#222222"/>
<path d="M48.2863 153.192C47.3796 153.192 46.5956 152.952 45.9343 152.472C45.2836 151.992 44.7823 151.32 44.4303 150.456C44.0889 149.592 43.9183 148.573 43.9183 147.4C43.9183 146.237 44.0889 145.224 44.4303 144.36C44.7823 143.485 45.2836 142.808 45.9343 142.328C46.5956 141.848 47.3796 141.608 48.2863 141.608C49.4383 141.608 50.3663 141.928 51.0703 142.568C51.7743 143.197 52.1849 144.04 52.3023 145.096H50.8143C50.7076 144.467 50.4409 143.939 50.0143 143.512C49.5876 143.085 49.0116 142.872 48.2863 142.872C47.3583 142.872 46.6276 143.277 46.0943 144.088C45.5609 144.888 45.2943 145.992 45.2943 147.4C45.2943 148.819 45.5609 149.928 46.0943 150.728C46.6276 151.528 47.3583 151.928 48.2863 151.928C49.0436 151.928 49.6249 151.725 50.0303 151.32C50.4463 150.915 50.7076 150.392 50.8143 149.752H52.3023C52.1316 150.819 51.7049 151.661 51.0223 152.28C50.3503 152.888 49.4383 153.192 48.2863 153.192ZM54.376 153V141.8H61.368V143.016H55.72V146.744H60.888V147.96H55.72V151.784H61.368V153H54.376Z" fill="#222222"/>
<path d="M148.003 243.192C147.235 243.192 146.574 243.048 146.019 242.76C145.464 242.472 145.027 242.083 144.707 241.592C144.387 241.101 144.195 240.541 144.131 239.912H145.507C145.603 240.52 145.875 241.016 146.323 241.4C146.771 241.773 147.336 241.96 148.019 241.96C148.819 241.96 149.448 241.704 149.907 241.192C150.366 240.669 150.595 240.013 150.595 239.224C150.595 238.392 150.36 237.741 149.891 237.272C149.422 236.792 148.814 236.552 148.067 236.552C147.47 236.552 146.958 236.691 146.531 236.968C146.115 237.235 145.779 237.576 145.523 237.992H144.243L145.203 231.8H151.187V233.032H146.259L145.667 236.36H145.747C145.992 236.093 146.323 235.859 146.739 235.656C147.166 235.453 147.656 235.352 148.211 235.352C148.947 235.352 149.587 235.512 150.131 235.832C150.686 236.141 151.118 236.589 151.427 237.176C151.736 237.752 151.891 238.429 151.891 239.208C151.891 239.933 151.736 240.6 151.427 241.208C151.128 241.805 150.686 242.285 150.099 242.648C149.523 243.011 148.824 243.192 148.003 243.192Z" fill="#222222"/>
<path d="M54.3791 243V240.408H49.0191V239.368L54.1231 231.8H55.7231V239.192H57.3231V240.408H55.7231V243H54.3791ZM50.5231 239.192H54.4431V233.368L50.5231 239.192Z" fill="#222222"/>
<path d="M144.387 288V286.944C145.539 286.027 146.542 285.184 147.395 284.416C148.259 283.648 148.926 282.907 149.395 282.192C149.864 281.477 150.099 280.747 150.099 280C150.099 279.328 149.907 278.8 149.523 278.416C149.15 278.021 148.643 277.824 148.003 277.824C147.512 277.824 147.096 277.931 146.755 278.144C146.414 278.357 146.158 278.64 145.987 278.992C145.816 279.344 145.731 279.723 145.731 280.128H144.403C144.414 279.392 144.574 278.763 144.883 278.24C145.203 277.707 145.63 277.301 146.163 277.024C146.707 276.747 147.32 276.608 148.003 276.608C149.102 276.608 149.955 276.912 150.563 277.52C151.171 278.128 151.475 278.944 151.475 279.968C151.475 280.64 151.331 281.285 151.043 281.904C150.755 282.512 150.371 283.099 149.891 283.664C149.411 284.229 148.872 284.773 148.275 285.296C147.678 285.819 147.075 286.32 146.467 286.8H151.779V288H144.387Z" fill="#222222"/>
<path d="M49.3231 288V286.784H52.2191V278.384L49.4831 278.912V277.888L52.6671 276.8H53.5631V286.784H56.6191V288H49.3231Z" fill="#222222"/>
<path d="M148.003 333.192C147.16 333.192 146.414 332.957 145.763 332.488C145.123 332.019 144.622 331.352 144.259 330.488C143.907 329.624 143.731 328.595 143.731 327.4C143.731 326.205 143.907 325.176 144.259 324.312C144.622 323.448 145.123 322.781 145.763 322.312C146.414 321.843 147.16 321.608 148.003 321.608C148.856 321.608 149.603 321.843 150.243 322.312C150.883 322.781 151.379 323.448 151.731 324.312C152.094 325.176 152.275 326.205 152.275 327.4C152.275 328.595 152.094 329.624 151.731 330.488C151.379 331.352 150.883 332.019 150.243 332.488C149.603 332.957 148.856 333.192 148.003 333.192ZM145.107 327.4C145.107 328.125 145.182 328.781 145.331 329.368C145.491 329.944 145.71 330.429 145.987 330.824L149.091 323.128C148.76 322.947 148.398 322.856 148.003 322.856C147.438 322.856 146.936 323.043 146.499 323.416C146.062 323.779 145.72 324.301 145.475 324.984C145.23 325.656 145.107 326.461 145.107 327.4ZM148.003 331.96C148.568 331.96 149.07 331.779 149.507 331.416C149.944 331.043 150.286 330.515 150.531 329.832C150.776 329.149 150.899 328.339 150.899 327.4C150.899 326.675 150.819 326.024 150.659 325.448C150.51 324.861 150.296 324.371 150.019 323.976L146.899 331.688C147.24 331.869 147.608 331.96 148.003 331.96Z" fill="#222222"/>
<path d="M42.3014 331V328.008H39.3094V326.792H42.3014V323.8H43.5174V326.792H46.5094V328.008H43.5174V331H42.3014ZM49.0311 334.44L54.5671 320.84H55.9751L50.4231 334.44H49.0311ZM59.4569 327.976V326.824H64.7369V327.976H59.4569Z" fill="#222222"/>
<path d="M242.811 198.192C242.128 198.192 241.52 198.059 240.987 197.792C240.464 197.515 240.043 197.147 239.723 196.688C239.414 196.219 239.232 195.696 239.179 195.12H240.475C240.571 195.685 240.822 196.139 241.227 196.48C241.643 196.811 242.171 196.976 242.811 196.976C243.654 196.976 244.342 196.597 244.875 195.84C245.408 195.072 245.712 193.877 245.787 192.256H245.691C245.403 192.757 245.035 193.168 244.587 193.488C244.139 193.808 243.51 193.968 242.699 193.968C242.027 193.968 241.424 193.813 240.891 193.504C240.358 193.195 239.931 192.768 239.611 192.224C239.302 191.68 239.147 191.061 239.147 190.368C239.147 189.685 239.296 189.061 239.595 188.496C239.904 187.92 240.336 187.461 240.891 187.12C241.456 186.779 242.112 186.608 242.859 186.608C244.267 186.608 245.318 187.088 246.011 188.048C246.704 189.008 247.051 190.315 247.051 191.968C247.051 193.195 246.886 194.277 246.555 195.216C246.224 196.144 245.744 196.875 245.115 197.408C244.486 197.931 243.718 198.192 242.811 198.192ZM242.955 192.752C243.702 192.752 244.299 192.517 244.747 192.048C245.195 191.579 245.419 190.992 245.419 190.288C245.419 189.584 245.195 188.997 244.747 188.528C244.299 188.059 243.702 187.824 242.955 187.824C242.208 187.824 241.611 188.059 241.163 188.528C240.726 188.997 240.507 189.584 240.507 190.288C240.507 191.003 240.726 191.595 241.163 192.064C241.611 192.523 242.208 192.752 242.955 192.752Z" fill="#222222"/>
<path d="M240.859 146.568C240.176 146.568 239.611 146.344 239.163 145.896C238.726 145.448 238.507 144.845 238.507 144.088C238.507 143.331 238.726 142.728 239.163 142.28C239.611 141.832 240.176 141.608 240.859 141.608C241.542 141.608 242.102 141.832 242.539 142.28C242.987 142.728 243.211 143.331 243.211 144.088C243.211 144.845 242.987 145.448 242.539 145.896C242.102 146.344 241.542 146.568 240.859 146.568ZM240.859 145.608C241.2 145.608 241.499 145.48 241.755 145.224C242.022 144.957 242.155 144.579 242.155 144.088C242.155 143.597 242.022 143.224 241.755 142.968C241.499 142.701 241.2 142.568 240.859 142.568C240.518 142.568 240.214 142.701 239.947 142.968C239.691 143.224 239.563 143.597 239.563 144.088C239.563 144.579 239.691 144.957 239.947 145.224C240.214 145.48 240.518 145.608 240.859 145.608ZM239.323 151.96L238.555 151.208L246.683 142.84L247.451 143.592L239.323 151.96ZM245.147 153.192C244.464 153.192 243.899 152.968 243.451 152.52C243.014 152.072 242.795 151.469 242.795 150.712C242.795 149.955 243.014 149.352 243.451 148.904C243.899 148.456 244.464 148.232 245.147 148.232C245.83 148.232 246.39 148.456 246.827 148.904C247.275 149.352 247.499 149.955 247.499 150.712C247.499 151.469 247.275 152.072 246.827 152.52C246.39 152.968 245.83 153.192 245.147 153.192ZM245.147 152.232C245.488 152.232 245.787 152.104 246.043 151.848C246.31 151.581 246.443 151.203 246.443 150.712C246.443 150.221 246.31 149.848 246.043 149.592C245.787 149.325 245.488 149.192 245.147 149.192C244.806 149.192 244.502 149.325 244.235 149.592C243.979 149.848 243.851 150.221 243.851 150.712C243.851 151.203 243.979 151.581 244.235 151.848C244.502 152.104 244.806 152.232 245.147 152.232Z" fill="#222222"/>
<path d="M243.227 243.192C242.246 243.192 241.446 242.957 240.827 242.488C240.219 242.008 239.766 241.368 239.467 240.568C239.179 239.757 239.035 238.845 239.035 237.832C239.035 236.605 239.206 235.528 239.547 234.6C239.888 233.661 240.379 232.931 241.019 232.408C241.67 231.875 242.448 231.608 243.355 231.608C244.07 231.608 244.678 231.747 245.179 232.024C245.691 232.291 246.091 232.659 246.379 233.128C246.678 233.587 246.854 234.104 246.907 234.68H245.643C245.536 234.115 245.28 233.667 244.875 233.336C244.47 232.995 243.963 232.824 243.355 232.824C242.822 232.824 242.331 232.995 241.883 233.336C241.446 233.667 241.083 234.184 240.795 234.888C240.518 235.581 240.358 236.467 240.315 237.544H240.395C240.64 237.085 241.019 236.685 241.531 236.344C242.043 236.003 242.662 235.832 243.387 235.832C244.059 235.832 244.662 235.987 245.195 236.296C245.728 236.605 246.15 237.032 246.459 237.576C246.779 238.12 246.939 238.739 246.939 239.432C246.939 240.115 246.784 240.744 246.475 241.32C246.176 241.885 245.744 242.339 245.179 242.68C244.624 243.021 243.974 243.192 243.227 243.192ZM243.131 241.976C243.867 241.976 244.459 241.741 244.907 241.272C245.355 240.803 245.579 240.216 245.579 239.512C245.579 238.797 245.355 238.211 244.907 237.752C244.459 237.283 243.867 237.048 243.131 237.048C242.64 237.048 242.208 237.155 241.835 237.368C241.472 237.581 241.184 237.875 240.971 238.248C240.768 238.621 240.667 239.043 240.667 239.512C240.667 239.981 240.768 240.403 240.971 240.776C241.184 241.149 241.472 241.443 241.835 241.656C242.208 241.869 242.64 241.976 243.131 241.976Z" fill="#222222"/>
<path d="M243.147 288.192C242.411 288.192 241.75 288.059 241.163 287.792C240.587 287.515 240.123 287.115 239.771 286.592C239.419 286.069 239.227 285.429 239.195 284.672H240.571C240.592 285.312 240.827 285.856 241.275 286.304C241.723 286.741 242.347 286.96 243.147 286.96C243.926 286.96 244.528 286.763 244.955 286.368C245.382 285.963 245.595 285.413 245.595 284.72C245.595 284.24 245.472 283.845 245.227 283.536C244.982 283.216 244.651 282.981 244.235 282.832C243.83 282.672 243.376 282.592 242.875 282.592H241.899V281.376H242.747C243.472 281.376 244.048 281.221 244.475 280.912C244.912 280.603 245.131 280.149 245.131 279.552C245.131 279.051 244.955 278.64 244.603 278.32C244.262 278 243.771 277.84 243.131 277.84C242.512 277.84 242.011 278.016 241.627 278.368C241.243 278.709 241.024 279.157 240.971 279.712H239.627C239.648 279.104 239.808 278.571 240.107 278.112C240.406 277.643 240.811 277.275 241.323 277.008C241.846 276.741 242.448 276.608 243.131 276.608C243.867 276.608 244.48 276.736 244.971 276.992C245.472 277.248 245.851 277.595 246.107 278.032C246.363 278.459 246.491 278.933 246.491 279.456C246.491 280.011 246.32 280.501 245.979 280.928C245.638 281.344 245.232 281.637 244.763 281.808V281.904C245.392 282.096 245.915 282.421 246.331 282.88C246.747 283.339 246.955 283.952 246.955 284.72C246.955 285.371 246.8 285.957 246.491 286.48C246.192 287.003 245.755 287.419 245.179 287.728C244.614 288.037 243.936 288.192 243.147 288.192Z" fill="#222222"/>
<path d="M243.003 333.032C242.672 333.032 242.39 332.92 242.155 332.696C241.92 332.472 241.803 332.195 241.803 331.864C241.803 331.544 241.92 331.272 242.155 331.048C242.39 330.824 242.672 330.712 243.003 330.712C243.334 330.712 243.616 330.824 243.851 331.048C244.086 331.272 244.203 331.544 244.203 331.864C244.203 332.195 244.086 332.472 243.851 332.696C243.616 332.92 243.334 333.032 243.003 333.032Z" fill="#222222"/>
<path d="M334.371 198L337.075 194.032L334.307 190.064H335.795L338.003 193.264L340.211 190.064H341.699L338.931 194.032L341.635 198H340.147L338.003 194.784L335.843 198H334.371Z" fill="#222222"/>
<path d="M334.531 154.44L340.067 140.84H341.475L335.923 154.44H334.531Z" fill="#222222"/>
<path d="M335.363 237.976V236.824H340.643V237.976H335.363Z" fill="#222222"/>
<path d="M337.395 286V283.008H334.403V281.792H337.395V278.8H338.611V281.792H341.603V283.008H338.611V286H337.395Z" fill="#222222"/>
<path d="M334.403 326.04V324.824H341.603V326.04H334.403ZM334.403 329.976V328.76H341.603V329.976H334.403Z" fill="#222222"/>
<path d="M326.661 100V96.832C330.117 94.08 333.125 91.552 335.685 89.248C338.277 86.944 340.277 84.72 341.685 82.576C343.093 80.432 343.797 78.24 343.797 76C343.797 73.984 343.221 72.4 342.069 71.248C340.949 70.064 339.429 69.472 337.509 69.472C336.037 69.472 334.789 69.792 333.765 70.432C332.741 71.072 331.973 71.92 331.461 72.976C330.949 74.032 330.693 75.168 330.693 76.384H326.709C326.741 74.176 327.221 72.288 328.149 70.72C329.109 69.12 330.389 67.904 331.989 67.072C333.621 66.24 335.461 65.824 337.509 65.824C340.805 65.824 343.365 66.736 345.189 68.56C347.013 70.384 347.925 72.832 347.925 75.904C347.925 77.92 347.493 79.856 346.629 81.712C345.765 83.536 344.613 85.296 343.173 86.992C341.733 88.688 340.117 90.32 338.325 91.888C336.533 93.456 334.725 94.96 332.901 96.4H348.837V100H326.661Z" fill="#222222"/>
<path d="M41.7094 79.12V75.472H63.3094V79.12H41.7094ZM41.7094 90.928V87.28H63.3094V90.928H41.7094Z" fill="#222222"/>
<path d="M305.136 42V40.784H308.032V32.384L305.296 32.912V31.888L308.48 30.8H309.376V40.784H312.432V42H305.136ZM327.395 40V37.008H324.403V35.792H327.395V32.8H328.611V35.792H331.603V37.008H328.611V40H327.395ZM343.511 42V40.784H346.407V32.384L343.671 32.912V31.888L346.855 30.8H347.751V40.784H350.807V42H343.511Z" fill="#222222" fill-opacity="0.5"/>
</svg>
